<?xml version="1.0" standalone="no"?>
<!DOCTYPE svg PUBLIC "-//W3C//DTD SVG 20010904//EN"
 "http://www.w3.org/TR/2001/REC-SVG-20010904/DTD/svg10.dtd">
<svg version="1.0" xmlns="http://www.w3.org/2000/svg"
 width="2925.000000pt" height="2925.000000pt" viewBox="0 0 2925.000000 2925.000000"
 preserveAspectRatio="xMidYMid meet">

<g transform="translate(0.000000,2925.000000) scale(0.100000,-0.100000)"
fill="#000000" stroke="none">
<path d="M13095 25235 c-176 -37 -256 -57 -252 -62 9 -8 371 69 386 83 8 8
-25 2 -134 -21z"/>
<path d="M11985 24990 c-60 -16 -102 -29 -92 -29 26 -1 210 41 222 51 14 13
-11 9 -130 -22z"/>
<path d="M11838 24953 c7 -3 16 -2 19 1 4 3 -2 6 -13 5 -11 0 -14 -3 -6 -6z"/>
<path d="M10711 24600 c-59 -33 -69 -40 -55 -40 13 0 131 69 119 70 -5 0 -34
-14 -64 -30z"/>
<path d="M10620 24550 c-9 -6 -10 -10 -3 -10 6 0 15 5 18 10 8 12 4 12 -15 0z"/>
<path d="M10295 24350 c-10 -11 -14 -20 -9 -20 5 0 15 9 22 20 7 11 11 20 9
20 -2 0 -12 -9 -22 -20z"/>
<path d="M10210 24279 c-44 -37 -94 -77 -185 -149 -74 -59 -229 -210 -222
-216 7 -6 167 30 167 37 0 5 5 9 11 9 5 0 7 -6 3 -12 -5 -9 -3 -9 9 1 9 7 15
17 12 21 -9 14 7 41 21 36 8 -3 18 3 23 13 13 24 2 34 -17 18 -9 -6 -5 3 8 21
14 18 30 30 38 27 7 -2 10 -1 7 4 -3 5 0 13 6 17 8 4 7 9 -2 15 -10 6 -11 9
-1 9 6 0 12 8 12 18 0 17 73 87 91 87 5 0 9 5 10 10 0 6 10 20 21 33 27 27 21
28 -12 1z"/>
<path d="M10043 23933 c9 -2 23 -2 30 0 6 3 -1 5 -18 5 -16 0 -22 -2 -12 -5z"/>
<path d="M10831 23362 c-1 -7 -5 -10 -11 -7 -21 13 -2 -23 42 -80 4 -5 32 -41
62 -80 29 -38 59 -69 65 -67 7 1 9 -2 6 -8 -8 -13 34 -62 46 -55 4 3 10 1 14
-5 3 -5 1 -10 -5 -10 -6 0 -8 -5 -5 -10 4 -6 11 -7 17 -4 6 4 8 3 5 -3 -7 -11
3 -23 342 -433 249 -301 309 -370 323 -370 4 0 8 29 8 64 0 197 77 542 156
698 13 26 24 50 24 52 0 3 -15 -1 -32 -8 -29 -11 -128 -18 -305 -20 -28 -1
-55 -4 -59 -8 -4 -4 -13 -3 -21 3 -7 6 -13 7 -13 2 0 -5 -12 -8 -27 -6 -16 3
-41 -1 -58 -8 -16 -7 -34 -11 -39 -10 -5 1 -12 -2 -15 -8 -4 -5 -24 -11 -46
-13 -22 -2 -46 -7 -53 -12 -6 -4 -12 -4 -12 1 0 4 -13 8 -30 8 -16 0 -30 -3
-30 -7 0 -5 -5 -8 -11 -8 -6 0 -9 7 -6 15 4 8 2 17 -3 20 -6 4 -10 -4 -10 -16
0 -19 -14 -20 -15 -1 -2 21 -18 52 -25 47 -4 -3 -7 3 -6 12 0 10 -6 18 -14 18
-10 0 -15 10 -15 27 1 18 -3 24 -10 18 -15 -12 -32 0 -45 34 -8 23 -8 31 2 38
9 6 5 7 -10 3 -25 -7 -45 9 -57 44 -4 14 -12 20 -21 17 -8 -3 -13 -2 -10 3 3
4 -2 17 -10 27 -15 19 -15 19 -10 -1 6 -20 6 -20 -9 0 -10 12 -12 21 -5 23 5
2 10 10 10 17 0 14 -27 28 -40 20 -5 -3 -11 -1 -15 5 -3 5 0 10 7 10 9 0 9 3
2 8 -6 4 -14 14 -17 22 -4 10 -6 11 -6 2z m49 -62 c0 -5 -4 -10 -10 -10 -5 0
-10 5 -10 10 0 6 5 10 10 10 6 0 10 -4 10 -10z"/>
<path d="M12857 22745 c13 -129 15 -223 4 -292 -21 -133 -80 -329 -167 -554
-46 -119 -84 -220 -84 -225 0 -5 12 15 27 45 15 30 46 72 69 94 24 23 40 45
38 49 -3 4 1 8 8 8 9 0 9 3 -2 10 -13 9 -13 12 0 23 8 6 22 21 30 31 14 18 13
19 -2 13 -10 -3 -18 -2 -18 3 0 5 9 12 21 15 16 6 20 13 17 36 -3 16 0 29 5
29 5 0 6 7 3 16 -5 12 -2 15 9 10 9 -3 13 -2 10 4 -3 6 1 13 9 16 11 4 14 16
10 46 -5 31 -3 39 6 33 10 -6 11 -1 6 19 -4 18 -2 26 6 26 9 0 8 3 -2 10 -8 5
-10 10 -3 10 6 0 10 13 8 33 -4 40 4 69 16 62 5 -3 6 1 3 10 -4 8 0 23 7 32 8
9 9 14 3 10 -7 -4 -11 3 -11 18 0 14 4 28 8 31 5 3 6 10 3 16 -4 6 0 14 7 19
11 7 10 9 -3 9 -14 0 -16 4 -9 24 13 33 -1 229 -18 250 -5 6 -11 20 -14 31 -2
11 -3 2 0 -20z"/>
<path d="M186 22122 c-3 -5 -19 -7 -35 -4 -26 4 -32 0 -45 -32 -8 -20 -20 -36
-25 -36 -6 0 -18 -14 -26 -30 -16 -30 -16 -30 15 -36 24 -5 28 -9 19 -20 -9
-11 -8 -19 6 -34 10 -11 15 -26 12 -35 -8 -21 2 -45 19 -45 8 0 14 -5 14 -11
0 -5 15 -16 33 -24 17 -7 42 -24 54 -37 12 -12 40 -41 62 -63 26 -25 37 -43
31 -49 -14 -14 -12 -22 6 -40 12 -13 14 -23 6 -45 -8 -23 -6 -35 8 -59 10 -16
23 -33 29 -36 6 -4 11 -16 11 -27 0 -16 6 -18 41 -16 27 2 43 -1 46 -10 9 -23
24 -14 104 65 87 87 139 173 139 231 -1 34 -21 77 -32 66 -2 -3 -22 11 -44 31
-21 19 -33 32 -25 28 9 -5 12 -3 7 4 -4 6 -23 11 -42 10 -22 -1 -41 5 -52 17
-16 17 -16 17 3 10 29 -11 69 -15 59 -5 -16 14 -183 130 -188 130 -3 0 -26 14
-51 31 -25 17 -48 29 -51 26 -3 -2 11 -15 31 -27 20 -12 33 -25 30 -28 -9 -9
-75 30 -75 44 0 14 -60 64 -78 64 -6 0 -13 -4 -16 -8z m109 -192 c3 -5 -3 -10
-14 -10 -12 0 -21 5 -21 10 0 6 6 10 14 10 8 0 18 -4 21 -10z"/>
<path d="M8224 21693 c-39 -60 -167 -204 -265 -297 -57 -55 -103 -104 -101
-109 1 -5 -1 -14 -6 -21 -5 -6 -10 -26 -10 -43 -1 -25 4 -33 17 -33 10 0 24 7
31 15 7 8 18 15 25 15 6 0 20 9 30 20 19 21 55 27 55 10 0 -5 -6 -10 -12 -10
-17 -1 -58 -35 -58 -49 0 -16 90 -14 140 4 23 8 46 12 51 9 5 -3 9 4 9 15 0
28 32 42 80 36 23 -3 39 -1 36 4 -7 11 22 23 37 14 6 -3 34 -7 62 -9 75 -3
115 -13 115 -30 0 -8 -3 -14 -7 -14 -5 0 -19 -9 -32 -19 l-24 -19 22 -12 c15
-8 27 -8 33 -2 17 17 49 1 55 -29 5 -26 10 -29 44 -29 21 0 41 5 45 11 4 7 22
9 45 6 l39 -5 -29 41 c-16 23 -66 90 -112 149 -46 59 -129 173 -184 254 -55
80 -103 148 -106 150 -4 2 -15 -8 -25 -23z m-204 -267 c0 -2 -8 -10 -17 -17
-16 -13 -17 -12 -4 4 13 16 21 21 21 13z m356 -100 c18 -14 18 -15 -11 -21
-17 -4 -39 -9 -50 -12 -18 -5 -18 -3 4 21 28 30 31 31 57 12z m-461 -6 c-3 -5
-16 -15 -28 -21 -22 -12 -22 -12 -3 10 19 21 43 30 31 11z"/>
<path d="M12595 21649 c-4 -6 -5 -12 -2 -15 2 -3 7 2 10 11 7 17 1 20 -8 4z"/>
<path d="M7819 21273 c-13 -16 -12 -17 4 -4 9 7 17 15 17 17 0 8 -8 3 -21 -13z"/>
<path d="M12447 21206 c-5 -15 -6 -31 -3 -34 8 -8 18 25 14 45 -3 13 -6 10
-11 -11z"/>
<path d="M8255 21206 c-10 -7 -19 -24 -20 -36 -2 -31 -23 -37 -27 -8 -2 16
-12 24 -35 29 -23 4 -33 3 -33 -6 0 -6 -9 -20 -20 -30 -18 -16 -18 -20 -4 -46
17 -34 16 -34 79 -11 68 24 77 30 70 53 -5 15 -1 19 19 19 19 0 26 5 26 19 0
10 -7 22 -16 25 -20 8 -17 8 -39 -8z"/>
<path d="M8340 21180 c0 -5 7 -10 15 -10 8 0 15 5 15 10 0 6 -7 10 -15 10 -8
0 -15 -4 -15 -10z"/>
<path d="M12406 21053 c-6 -14 -5 -15 5 -6 7 7 10 15 7 18 -3 3 -9 -2 -12 -12z"/>
<path d="M8171 21032 c-23 -2 -44 -14 -63 -35 -15 -18 -28 -35 -28 -38 0 -16
49 -14 70 3 12 10 29 18 37 18 8 0 21 7 29 15 9 8 25 15 37 15 17 1 19 2 7 9
-24 14 -52 18 -89 13z"/>
<path d="M12395 21018 c-17 -50 -97 -358 -109 -427 -9 -46 -16 -119 -16 -162
0 -72 2 -81 28 -110 26 -29 34 -32 122 -40 52 -5 120 -17 150 -25 51 -14 289
-100 585 -211 66 -25 174 -62 240 -84 107 -34 551 -176 678 -216 27 -8 51 -12
54 -9 4 3 -1 6 -10 6 -9 0 -17 6 -17 14 0 11 5 12 25 3 14 -7 23 -18 20 -24
-2 -7 0 -13 5 -13 6 0 10 4 10 9 0 15 33 22 44 10 8 -9 7 -10 -6 -6 -10 3 -19
0 -22 -10 -4 -10 -2 -13 8 -10 7 3 19 0 25 -6 8 -8 11 -8 11 2 0 7 5 9 13 5 8
-5 7 -2 -2 9 -8 10 -12 19 -10 22 8 7 24 -9 35 -34 l10 -24 22 23 c12 13 23
21 23 17 1 -4 2 -13 3 -19 2 -14 29 -12 34 2 2 5 9 4 16 -3 8 -6 11 -18 9 -24
-6 -16 9 -17 25 -1 9 9 12 9 12 0 0 -7 7 -12 15 -12 8 0 15 7 15 17 0 9 3 14
6 10 3 -3 17 -2 30 3 14 6 24 6 24 0 0 -5 -9 -12 -20 -15 -11 -4 -18 -11 -14
-16 3 -6 13 -8 21 -5 8 3 11 1 8 -4 -11 -17 6 -52 21 -46 8 3 13 2 10 -2 -7
-12 203 -77 249 -77 22 0 63 10 90 22 32 13 84 24 140 29 77 6 108 9 123 13 1
1 -5 9 -15 20 -10 10 -41 27 -70 37 -28 10 -49 22 -46 27 3 5 -3 6 -13 3 -13
-4 -24 1 -32 15 -12 19 -11 19 8 9 24 -13 28 4 4 18 -11 6 -13 12 -6 16 6 4 9
13 6 20 -3 7 2 19 11 26 10 8 15 9 15 1 0 -6 -5 -11 -12 -11 -7 0 -3 -10 9
-21 21 -22 53 -21 53 2 0 8 -4 8 -13 1 -8 -7 -18 -7 -27 -2 -8 6 -12 10 -7 11
4 1 12 3 17 4 6 1 15 3 21 4 6 0 8 8 5 17 -3 8 1 22 9 31 8 8 13 18 10 22 -2
5 8 8 23 7 22 -1 26 3 24 21 -2 17 4 23 27 28 17 3 30 10 30 13 -3 18 3 22 19
13 14 -8 19 -6 19 5 0 7 -9 14 -21 14 -19 0 -19 0 -1 14 11 8 23 12 27 10 5
-3 8 0 8 6 0 6 4 8 10 5 5 -3 19 9 30 27 11 18 23 31 27 29 5 -2 13 6 19 19 8
15 13 18 17 8 4 -11 7 -11 18 0 12 11 12 14 -1 22 -13 8 -12 10 3 10 17 0 19
20 3 32 -12 8 11 38 30 38 23 0 16 26 -16 60 -16 18 -28 36 -25 40 3 4 64 11
137 14 174 9 245 15 288 27 19 5 103 18 185 29 83 11 184 31 225 44 41 13 104
26 140 29 36 3 85 10 110 16 25 5 74 12 110 16 36 3 85 8 110 10 25 3 92 9
150 14 58 6 139 18 180 27 142 31 165 35 240 40 84 6 108 9 130 17 8 3 42 8
75 12 33 4 87 11 120 16 33 5 68 10 78 11 9 1 17 5 17 9 0 9 -49 21 -60 14 -4
-3 -20 -1 -35 5 -17 7 -33 7 -45 0 -12 -7 -20 -6 -22 0 -3 10 -75 15 -338 24
-52 2 -91 -1 -99 -8 -11 -8 -13 -8 -7 2 5 8 0 12 -16 12 -13 0 -28 4 -33 9 -6
5 -48 12 -95 15 -47 3 -96 9 -110 13 -14 3 -187 8 -384 9 -280 3 -361 6 -367
16 -5 8 -9 8 -9 2 0 -13 -28 -16 -197 -16 -73 0 -130 -4 -127 -9 3 -5 1 -9 -5
-9 -5 0 -14 8 -20 17 -8 14 -12 15 -25 4 -14 -12 -19 -11 -34 3 -10 9 -23 16
-28 16 -5 0 -2 -5 6 -10 13 -8 12 -10 -2 -10 -10 0 -18 4 -18 9 0 5 -15 8 -32
7 -18 -1 -39 2 -45 7 -8 6 -13 5 -13 -2 0 -6 -7 -11 -15 -11 -8 0 -15 8 -15
17 0 13 -3 14 -11 6 -7 -7 -20 -8 -34 -3 -12 4 -28 5 -35 0 -7 -4 -19 -6 -27
-3 -7 3 -13 -2 -13 -11 0 -13 11 -16 51 -16 36 0 49 -4 47 -12 -5 -14 -48 -24
-48 -11 0 4 -25 9 -55 9 -30 1 -55 -2 -55 -7 0 -10 -36 -7 -46 4 -4 4 -22 7
-41 7 -18 0 -33 5 -33 11 0 8 -4 9 -13 0 -8 -6 -32 -9 -58 -5 -24 3 -61 7 -83
8 -21 2 -43 10 -48 17 -6 10 -7 6 -2 -11 6 -22 5 -23 -10 -11 -9 7 -16 20 -16
27 0 11 22 14 105 14 62 0 105 4 105 10 0 5 -13 7 -30 4 -18 -4 -30 -2 -30 4
0 16 -59 26 -75 12 -11 -10 -15 -10 -15 -1 0 7 -5 9 -10 6 -6 -4 -18 -1 -27 7
-15 11 -16 11 -10 -4 3 -10 2 -18 -3 -18 -6 0 -10 5 -10 11 0 6 -7 9 -14 6
-10 -4 -13 -1 -9 9 6 15 -12 20 -21 5 -3 -5 -27 -7 -53 -6 -27 2 -61 3 -76 4
-16 1 -26 5 -22 11 3 6 5 10 3 10 -56 7 -87 15 -107 29 -14 9 -26 15 -28 14
-2 -1 -8 -1 -15 2 -12 3 -83 22 -175 45 -18 4 -34 6 -37 3 -2 -3 -31 5 -62 17
-57 21 -68 21 -359 15 -165 -3 -352 -10 -415 -16 -63 -6 -128 -12 -145 -14
-16 -1 -43 -5 -60 -8 -75 -16 -141 -24 -250 -32 -44 -3 -98 -7 -120 -10 -78
-11 -152 -15 -333 -19 -101 -3 -186 -7 -189 -9 -8 -8 -33 4 -33 15 0 7 5 6 14
-1 11 -9 15 -7 20 11 9 34 8 38 -11 38 -14 1 -13 4 6 14 14 8 19 16 13 20 -6
3 -12 0 -15 -6 -2 -7 -7 -10 -11 -7 -11 10 5 60 16 53 6 -4 5 4 -2 16 -8 15
-8 20 -1 16 6 -4 11 -1 11 8 0 20 -19 31 -25 14z m2495 -281 c0 -32 -43 -31
-48 1 -3 18 2 22 22 22 21 0 26 -5 26 -23z m130 -934 c-1 -27 -1 -27 -15 -9
-14 19 -12 36 6 36 5 0 9 -12 9 -27z m-950 -39 c0 -2 -7 -4 -15 -4 -8 0 -15 4
-15 10 0 5 7 7 15 4 8 -4 15 -8 15 -10z"/>
<path d="M8004 21005 c-4 -11 -12 -23 -18 -27 -6 -4 -7 -10 -3 -14 3 -4 14 -1
23 7 13 11 18 11 21 2 5 -15 23 -18 23 -4 0 5 -9 19 -19 32 -19 23 -20 23 -27
4z"/>
<path d="M8740 21011 c0 -5 -13 -12 -29 -16 -16 -3 -35 -13 -41 -21 -7 -7 -16
-12 -20 -9 -14 9 -64 -41 -58 -56 4 -10 21 -14 59 -13 30 1 59 -1 64 -5 15
-11 89 -31 114 -31 11 0 30 -9 41 -20 21 -21 40 -26 40 -11 0 10 -49 77 -109
149 -33 39 -61 54 -61 33z"/>
<path d="M19808 20915 c-26 -6 -58 -11 -72 -10 -14 0 -26 -3 -26 -8 0 -4 -6
-5 -12 -1 -7 4 -9 3 -5 -1 10 -12 325 -16 332 -5 3 5 -9 9 -27 9 -18 -1 -45 4
-60 10 -16 6 -28 9 -28 6 0 -2 -12 0 -28 4 -16 5 -47 3 -74 -4z"/>
<path d="M8950 20750 c0 -13 -9 -22 -27 -26 -61 -13 -67 -22 -34 -50 18 -16
17 -18 -31 -61 -28 -25 -56 -42 -64 -39 -8 3 -25 1 -39 -4 -20 -8 -23 -6 -19
8 2 9 -1 7 -7 -5 -7 -13 -16 -23 -21 -23 -4 0 -8 -7 -8 -16 0 -12 9 -15 43
-13 23 2 74 -3 114 -10 48 -8 85 -10 115 -3 38 7 56 4 151 -29 59 -21 107 -35
107 -31 0 8 -40 57 -131 162 -22 25 -43 50 -47 55 -33 44 -88 105 -94 105 -4
0 -8 -9 -8 -20z m59 -114 c22 -8 31 -15 23 -20 -7 -4 -17 -4 -23 -1 -5 4 -19
-1 -29 -10 -21 -19 -19 -21 -35 30 -5 18 16 18 64 1z"/>
<path d="M15140 20748 c-24 -7 -24 -8 3 -4 16 2 34 -2 40 -8 7 -6 37 -12 67
-13 30 0 46 1 35 4 -11 3 -24 11 -28 19 -6 11 -12 11 -27 2 -13 -8 -25 -9 -42
-2 -13 6 -34 7 -48 2z"/>
<path d="M17638 20603 c7 -3 16 -2 19 1 4 3 -2 6 -13 5 -11 0 -14 -3 -6 -6z"/>
<path d="M7236 20516 c-33 -31 -36 -37 -24 -55 14 -24 25 -25 63 -11 17 6 27
20 31 40 4 16 10 30 14 30 4 0 10 7 14 15 4 11 -2 15 -27 15 -24 0 -44 -10
-71 -34z"/>
<path d="M8659 20396 c-3 -3 -44 -7 -92 -8 -70 -2 -91 -6 -104 -21 -16 -17
-15 -18 27 -16 25 2 72 -3 105 -10 33 -7 83 -16 110 -21 186 -35 218 -43 194
-53 -23 -9 -23 -10 16 -28 22 -10 56 -21 75 -25 85 -14 155 -40 296 -110 150
-74 204 -107 204 -125 0 -15 -44 -10 -102 10 -71 25 -162 51 -178 51 -26 0 5
-19 40 -25 19 -3 44 -10 55 -15 41 -19 222 -69 275 -76 53 -8 54 -8 20 -14
-34 -6 -33 -7 40 -29 41 -13 88 -30 103 -38 46 -23 41 -10 -13 43 -28 27 -108
113 -178 191 -105 118 -134 145 -172 158 -25 9 -58 23 -75 31 -16 8 -57 19
-90 25 -36 6 -71 20 -88 35 -33 28 -24 26 -107 28 -36 1 -68 -1 -71 -6 -3 -5
-22 -2 -42 7 -20 8 -42 12 -50 9 -8 -3 -18 -1 -21 5 -4 6 -13 8 -21 5 -8 -3
-20 -2 -27 3 -7 4 -31 8 -53 8 -22 1 -47 4 -56 8 -8 4 -17 5 -20 3z"/>
<path d="M15127 19878 c-9 -31 -2 -33 11 -3 6 14 8 25 3 25 -5 0 -11 -10 -14
-22z"/>
<path d="M23020 19585 c0 -16 27 -32 37 -21 7 7 -16 36 -28 36 -5 0 -9 -7 -9
-15z"/>
<path d="M23063 19559 c-9 -9 2 -23 40 -55 28 -24 54 -44 59 -44 4 0 8 -5 8
-11 0 -13 25 -39 39 -39 5 0 13 -9 16 -20 4 -11 10 -18 15 -15 5 3 14 -4 20
-15 13 -24 35 -45 152 -151 159 -143 388 -368 388 -382 0 -4 20 -27 45 -51 25
-25 45 -47 45 -51 0 -3 18 -23 40 -42 22 -20 40 -40 40 -44 0 -5 21 -31 48
-60 26 -28 46 -53 44 -55 -2 -4 15 -24 96 -111 42 -45 120 -151 149 -202 15
-28 31 -51 36 -51 4 0 7 -7 7 -15 0 -8 3 -15 8 -15 4 0 21 -21 37 -45 17 -25
33 -45 38 -45 4 0 7 -5 7 -10 0 -6 4 -16 10 -23 15 -19 72 -93 103 -134 29
-40 104 -138 147 -193 14 -18 29 -41 34 -51 5 -11 13 -19 18 -19 4 0 8 -5 8
-11 0 -6 6 -16 13 -23 34 -35 227 -296 227 -309 0 -5 76 -124 170 -263 145
-218 240 -374 240 -396 0 -4 25 -60 56 -125 132 -279 127 -266 180 -468 23
-86 36 -130 45 -147 6 -11 8 -22 6 -25 -3 -3 1 -23 9 -45 13 -39 21 -69 29
-113 2 -11 13 -47 24 -80 11 -33 22 -73 25 -88 3 -16 12 -51 21 -78 9 -27 14
-56 11 -64 -2 -7 -1 -15 5 -17 10 -3 21 -38 23 -75 0 -11 4 -19 9 -16 10 6 9
-5 -2 -26 -6 -10 -6 -23 0 -32 7 -11 9 -10 9 5 0 29 8 15 14 -24 6 -33 5 -34
-9 -16 -8 11 -15 15 -15 9 0 -7 5 -15 10 -18 6 -4 8 -11 5 -16 -3 -5 1 -6 9
-3 11 4 17 0 18 -12 2 -26 4 -36 12 -59 22 -58 26 -73 28 -105 1 -19 5 -37 9
-40 3 -3 10 -16 14 -30 7 -21 6 -23 -7 -13 -8 7 -17 10 -20 7 -9 -8 3 -68 14
-75 6 -4 5 -9 -3 -12 -9 -4 -8 -6 5 -6 15 -1 17 -7 14 -33 -4 -28 -4 -29 8
-13 9 13 10 23 3 37 -5 10 -7 23 -4 28 3 5 1 11 -5 15 -5 3 -10 14 -10 23 1
15 3 15 15 -2 8 -11 13 -28 9 -38 -3 -10 -1 -18 4 -18 5 0 13 -21 17 -47 4
-27 6 -48 4 -48 -1 0 3 -10 9 -21 6 -12 14 -36 17 -55 3 -19 10 -38 16 -44 13
-13 11 -27 -3 -19 -7 4 -5 -2 5 -13 19 -22 22 -43 7 -43 -7 0 -6 -8 1 -22 16
-29 21 -118 6 -118 -5 0 -1 -8 11 -18 16 -14 18 -22 10 -30 -7 -7 -8 -12 -2
-12 5 0 11 -12 12 -27 3 -56 5 -68 12 -78 3 -5 8 -28 9 -49 2 -22 6 -49 10
-60 11 -27 3 -154 -10 -178 -6 -11 -17 -17 -24 -14 -8 3 -17 0 -21 -6 -4 -6
-3 -9 2 -6 14 9 54 -10 54 -24 0 -9 -3 -9 -10 2 -6 9 -10 10 -10 3 0 -6 6 -18
13 -25 12 -13 18 -90 6 -82 -4 2 -12 -2 -18 -10 -12 -15 -5 -46 11 -46 5 0 2
-7 -6 -16 -18 -17 -22 -49 -6 -39 6 4 8 11 5 16 -4 5 -2 9 4 9 6 0 9 -14 7
-32 -2 -18 -1 -37 2 -43 3 -5 7 -24 8 -42 0 -18 7 -40 14 -48 11 -13 11 -18 1
-24 -10 -6 -10 -14 -3 -28 8 -14 8 -23 0 -31 -6 -6 -7 -16 -2 -24 5 -7 9 -16
10 -20 1 -5 2 -9 4 -10 1 -2 3 -30 5 -63 6 -84 9 -108 18 -122 5 -8 3 -13 -5
-13 -8 0 -9 -3 -3 -8 6 -4 11 -36 12 -72 1 -36 4 -105 7 -155 9 -165 18 -359
21 -463 2 -56 6 -106 9 -111 7 -11 9 -819 2 -851 -3 -14 -8 -86 -11 -160 -3
-74 -7 -148 -9 -165 -4 -30 -19 -535 -20 -670 0 -70 9 -253 18 -355 8 -85 16
-186 22 -290 11 -195 20 -257 53 -355 4 -11 7 -34 7 -51 -1 -21 3 -30 12 -27
8 3 10 0 6 -10 -3 -9 -1 -24 5 -35 6 -11 12 -41 13 -66 0 -25 5 -46 10 -46 5
0 6 -5 3 -10 -4 -6 -1 -18 6 -26 6 -8 9 -17 6 -20 -2 -3 0 -26 7 -52 6 -26 11
-61 11 -78 -1 -24 3 -30 15 -26 12 4 13 2 3 -9 -16 -16 -17 -29 -2 -29 5 0 7
5 3 12 -4 7 -3 8 4 4 7 -4 12 -21 12 -37 0 -17 -4 -28 -8 -25 -5 3 -9 -1 -9
-8 0 -7 6 -13 13 -13 7 0 11 4 8 9 -3 4 2 8 11 8 11 0 15 -5 11 -15 -3 -8 -1
-15 3 -15 10 0 9 -19 -2 -36 -7 -12 1 -24 15 -24 5 0 6 5 3 10 -3 6 -1 10 4
10 14 0 14 -13 -1 -28 -9 -9 -7 -13 5 -18 22 -8 12 -25 -11 -18 -14 5 -14 4
-3 -4 8 -6 20 -8 26 -6 9 4 12 -8 10 -41 -1 -25 2 -48 7 -51 5 -3 5 -11 1 -17
-9 -15 -3 -99 8 -114 7 -7 6 -14 -1 -18 -11 -7 -10 -46 2 -55 4 -3 3 -24 -2
-46 -6 -24 -6 -73 -1 -119 5 -45 5 -88 0 -102 -5 -13 -5 -23 0 -23 4 0 8 -15
8 -34 0 -24 -4 -33 -14 -29 -7 3 -13 11 -13 18 0 8 -5 17 -12 21 -6 4 -8 3 -4
-4 3 -6 2 -13 -4 -17 -13 -8 -13 -75 0 -75 6 0 10 -10 10 -22 0 -40 12 -71 21
-57 4 8 11 10 15 6 4 -3 1 -14 -6 -22 -9 -11 -10 -19 -2 -27 6 -6 8 -18 5 -27
-3 -11 -1 -11 7 3 10 14 10 20 -1 27 -15 9 -6 22 17 25 13 2 15 -4 11 -31 -4
-25 0 -41 14 -59 22 -28 26 -71 6 -63 -8 3 -14 -1 -14 -7 0 -9 12 -12 34 -9
25 3 33 0 33 -13 0 -9 -6 -14 -13 -11 -8 3 -14 -1 -14 -9 0 -7 4 -11 9 -8 4 3
8 -8 8 -25 0 -16 5 -33 12 -37 8 -5 9 -2 5 10 -4 9 -3 15 2 11 5 -3 11 1 14 7
2 7 3 -3 3 -24 -1 -20 -4 -34 -8 -31 -5 2 -8 -6 -8 -19 0 -18 2 -20 10 -8 6 9
10 11 10 3 0 -7 7 -10 17 -6 13 5 15 2 9 -18 -16 -54 -15 -59 5 -59 14 0 19
-7 19 -25 0 -14 5 -25 10 -25 6 0 10 -7 10 -15 0 -12 4 -13 19 -5 24 12 34 13
27 2 -3 -5 1 -9 9 -9 9 0 14 7 13 16 -2 9 3 15 10 13 8 -1 11 2 8 7 -4 5 1 17
10 26 11 11 14 25 10 45 -3 19 -1 30 5 30 6 0 9 9 6 20 -3 11 0 20 6 20 8 0 7
4 -2 9 -9 6 -10 11 -2 15 7 5 8 13 1 25 -6 12 -5 22 2 29 7 7 7 16 0 28 -6 10
-7 27 -2 39 5 12 5 28 0 35 -4 7 -4 26 0 41 5 16 5 31 2 33 -4 2 -5 48 -2 103
3 54 3 126 0 160 -3 38 -1 65 5 67 7 3 6 7 -1 13 -6 4 -11 17 -11 28 0 11 5
23 11 27 8 6 7 8 -1 8 -11 0 -11 20 2 60 3 10 1 27 -6 38 -7 11 -9 27 -4 38
13 34 13 83 -1 88 -8 3 -11 12 -8 21 3 8 10 12 15 9 5 -3 9 0 9 5 0 6 -5 11
-11 11 -6 0 -8 9 -4 21 4 12 3 19 -1 16 -5 -3 -8 25 -8 61 1 37 -2 87 -7 112
-5 25 -14 65 -19 90 -5 25 -11 58 -15 74 -5 23 -3 27 9 23 18 -7 23 18 6 28
-5 3 -10 21 -10 38 0 18 -6 60 -14 95 -7 35 -9 65 -5 68 4 2 1 23 -7 46 -17
48 -18 61 -4 53 6 -3 10 -2 10 4 0 5 -5 13 -10 16 -6 4 -11 23 -11 43 0 71
-11 152 -20 146 -5 -3 -9 -2 -10 3 -5 69 -8 86 -16 94 -6 6 -9 28 -6 50 4 28
2 40 -8 44 -11 4 -14 24 -14 73 1 42 -4 72 -12 80 -6 7 -10 18 -7 26 3 7 0 25
-5 39 -7 19 -7 27 0 27 6 0 7 5 4 10 -3 6 2 10 12 11 15 0 15 2 -3 9 -20 8
-22 18 -28 127 -4 74 -12 129 -21 147 -9 16 -12 33 -7 40 8 11 7 50 -2 135 -7
59 -16 82 -27 76 -5 -4 -9 -1 -9 4 0 6 5 11 11 11 6 0 8 9 3 23 -4 12 -7 33
-6 46 1 13 -2 29 -7 35 -5 6 -8 22 -7 36 1 14 -4 31 -11 38 -7 8 -10 19 -6 25
4 6 7 42 7 79 1 58 -2 69 -18 74 -10 3 -14 9 -9 13 6 3 10 20 10 38 0 24 -4
30 -16 25 -14 -5 -14 -3 1 14 17 20 15 69 -3 58 -5 -3 -9 -1 -9 5 0 5 6 12 13
14 9 4 8 8 -3 16 -12 8 -12 11 -1 11 9 0 12 10 9 34 -2 19 -1 33 2 31 3 -2 7
12 7 32 1 25 -2 32 -8 22 -5 -9 -9 -10 -9 -2 0 6 7 18 15 27 18 18 20 30 3 20
-7 -4 -10 -4 -6 1 12 13 -10 43 -34 48 -13 2 -8 3 10 1 18 -1 30 1 27 6 -3 6
2 7 12 4 13 -4 14 -3 5 4 -11 7 -11 16 2 47 18 41 22 86 5 50 -7 -16 -8 -14
-3 10 7 38 11 215 4 215 -3 0 -5 19 -6 43 -1 23 -2 51 -4 62 -2 11 1 38 5 60
7 37 7 39 -8 26 -19 -15 -21 -9 -8 37 7 23 6 32 -3 32 -6 0 -12 9 -12 20 0 12
5 19 12 16 13 -5 29 23 19 32 -3 3 -5 0 -5 -6 0 -7 -7 -12 -15 -12 -8 0 -15 5
-15 10 0 6 5 10 11 10 8 0 7 5 -2 16 -10 12 -10 17 -1 23 7 4 10 15 6 25 -5
12 -9 14 -14 6 -5 -8 -10 -9 -14 -2 -3 6 3 14 15 17 15 5 18 11 13 23 -4 10
-7 35 -7 57 1 28 -1 34 -6 21 -7 -18 -8 -18 -14 5 -4 13 -6 38 -6 54 0 26 2
27 9 10 6 -15 8 -10 7 20 -1 22 -6 44 -12 48 -6 6 -6 10 2 14 10 3 10 10 2 25
-8 15 -8 19 0 14 7 -5 9 -1 5 8 -3 9 -11 16 -16 16 -17 0 2 74 24 93 20 17 20
18 -4 21 -7 0 -13 21 -15 51 -2 38 0 46 8 35 9 -13 10 -13 6 2 -3 9 -9 33 -13
52 -5 31 -3 36 12 36 14 0 15 3 6 12 -16 16 -15 75 1 81 10 4 10 6 0 6 -7 1
-13 10 -13 20 0 11 6 22 13 24 9 4 9 8 -2 15 -8 6 -12 20 -9 36 3 15 1 26 -6
26 -7 0 -7 3 -1 8 13 9 16 42 3 42 -5 0 -8 10 -7 23 1 12 -2 30 -6 41 -5 11
-3 26 3 37 7 10 12 22 12 26 0 5 -4 2 -9 -6 -5 -8 -7 18 -5 64 3 43 6 81 9 85
2 4 0 34 -5 66 -8 49 -15 114 -19 182 -1 7 -7 10 -13 7 -7 -4 -5 0 5 8 13 11
14 16 5 19 -6 2 -13 20 -15 39 -3 57 -11 113 -16 129 -5 15 -13 70 -22 165
-12 113 -17 136 -38 150 -17 12 -18 16 -7 30 9 11 10 19 3 23 -15 11 -23 52
-10 52 7 0 4 5 -5 11 -10 5 -18 21 -18 35 0 15 -4 23 -11 19 -6 -4 -10 -1 -8
6 3 28 -1 40 -13 33 -8 -5 -9 -2 -5 9 3 10 3 17 -1 17 -4 0 -8 19 -10 43 -1
23 -9 47 -17 53 -8 6 -11 15 -6 20 5 5 -2 52 -16 104 -13 52 -26 107 -28 123
-5 37 -14 49 -28 40 -9 -5 -9 -3 0 8 14 18 7 56 -16 82 -9 11 -15 29 -13 41 2
12 -5 39 -14 61 -10 22 -17 48 -15 58 1 9 -3 17 -10 17 -7 0 -9 3 -6 6 3 4 2
14 -3 23 -4 9 -11 36 -15 60 -3 24 -14 55 -22 68 -9 13 -16 40 -15 59 1 19 -3
34 -8 34 -6 0 -10 16 -10 35 0 19 -5 35 -11 35 -6 0 -9 7 -5 15 3 8 2 15 -2
15 -5 0 -9 19 -11 42 -1 23 -6 45 -11 48 -5 3 -9 14 -9 25 0 22 -1 29 -21 95
-8 25 -15 50 -16 55 0 6 -7 24 -14 40 -7 17 -13 45 -14 63 0 17 -3 32 -6 32
-7 0 -27 48 -33 80 -3 14 -10 39 -16 55 -6 17 -31 89 -56 160 -25 72 -52 144
-59 160 -8 17 -17 41 -21 55 -4 14 -19 45 -33 70 -15 25 -25 49 -24 54 2 5 -5
17 -14 27 -9 11 -13 19 -9 19 4 0 0 9 -10 20 -10 11 -15 20 -10 20 4 0 3 6 -3
13 -5 6 -32 55 -58 107 -27 52 -51 97 -54 100 -3 3 -16 29 -29 59 -13 30 -38
76 -56 103 -19 27 -37 57 -40 68 -4 11 -10 20 -15 20 -4 0 -10 8 -14 18 -3 9
-15 31 -26 47 -10 17 -26 45 -34 62 -8 18 -24 42 -35 55 -12 12 -21 26 -21 30
0 5 -12 27 -27 51 -15 23 -38 62 -52 87 -13 25 -46 77 -72 116 -27 39 -49 76
-49 82 0 7 -4 12 -10 12 -5 0 -10 5 -10 11 0 6 -6 16 -12 23 -17 18 -35 44
-56 83 -15 28 -61 100 -113 175 -11 15 -19 32 -19 38 0 6 -6 13 -14 16 -8 3
-16 15 -19 26 -3 11 -10 17 -16 13 -6 -3 -11 0 -11 7 0 8 -9 20 -20 28 -11 8
-20 20 -20 28 0 7 -7 15 -15 18 -8 4 -15 12 -15 20 0 8 -4 14 -10 14 -5 0 -10
7 -10 15 0 8 -4 15 -10 15 -5 0 -17 16 -26 36 -9 20 -23 38 -31 41 -7 3 -10 9
-7 14 5 8 -16 38 -71 102 -8 9 -15 20 -15 23 0 3 -8 16 -17 29 -10 12 -25 33
-33 46 -8 12 -25 33 -37 46 -13 13 -23 26 -23 29 0 6 -52 74 -100 130 -67 79
-138 168 -175 220 -26 37 -104 119 -234 247 -58 56 -134 132 -170 168 -36 36
-93 87 -126 115 -33 27 -63 54 -67 59 -4 6 -8 7 -8 3 0 -5 -8 0 -18 10 -10 9
-35 31 -57 47 -21 17 -47 40 -58 53 -12 12 -26 22 -32 22 -6 0 -24 14 -40 30
-16 17 -34 30 -41 30 -6 0 -17 7 -25 16 -7 8 -31 25 -53 36 -22 11 -46 27 -54
34 -7 8 -20 14 -28 14 -8 0 -14 5 -14 10 0 13 -23 13 -37 -1z m3057 -5819 c0
-5 -2 -10 -4 -10 -3 0 -8 5 -11 10 -3 6 -1 10 4 10 6 0 11 -4 11 -10z m314
-249 c4 -5 -3 -7 -14 -4 -23 6 -26 13 -6 13 8 0 17 -4 20 -9z m-25 -1790 c-5
-23 -4 -38 3 -42 7 -4 6 -9 -2 -14 -6 -4 -9 -13 -6 -21 3 -8 1 -14 -4 -14 -6
0 -8 39 -6 98 5 120 7 129 16 72 4 -24 3 -60 -1 -79z m103 -85 c7 4 8 2 4 -5
-9 -13 -26 -5 -25 12 0 9 2 8 6 -1 2 -6 10 -9 15 -6z m-115 -78 c-3 -8 -6 -5
-6 6 -1 11 2 17 5 13 3 -3 4 -12 1 -19z m113 -10 c0 -12 -3 -18 -7 -14 -11 10
-12 36 -2 36 5 0 9 -10 9 -22z m-7 -35 c-7 -2 -19 -2 -25 0 -7 3 -2 5 12 5 14
0 19 -2 13 -5z m-1 -68 c-5 -31 -22 -44 -22 -18 0 15 17 43 26 43 1 0 -1 -11
-4 -25z m82 -1135 c-6 -6 -10 -3 -10 10 0 13 4 16 10 10 7 -7 7 -13 0 -20z
m-49 -2040 c3 -5 1 -10 -4 -10 -6 0 -11 5 -11 10 0 6 2 10 4 10 3 0 8 -4 11
-10z m-31 -95 c3 -8 1 -15 -4 -15 -6 0 -10 7 -10 15 0 8 2 15 4 15 2 0 6 -7
10 -15z m-3 -39 c5 3 9 1 9 -4 0 -16 -24 -20 -37 -6 -10 10 -10 13 0 17 7 2
14 0 15 -5 2 -4 8 -6 13 -2z m159 -166 c0 -5 -5 -10 -11 -10 -5 0 -8 -4 -5 -9
3 -4 -7 -6 -22 -2 -25 5 -25 6 -4 9 12 2 22 8 22 13 0 5 5 9 10 9 6 0 10 -4
10 -10z m90 -100 c0 -11 -4 -20 -10 -20 -5 0 -10 9 -10 20 0 11 5 20 10 20 6
0 10 -9 10 -20z m-25 -68 c-8 -8 -25 10 -19 20 4 6 9 5 15 -3 4 -7 6 -15 4
-17z"/>
<path d="M10200 19487 c0 -20 -49 -117 -59 -117 -12 0 -21 -54 -11 -60 5 -3 2
-14 -6 -25 -13 -17 -16 -18 -24 -5 -8 13 -10 12 -10 -2 0 -10 7 -18 15 -18 13
0 14 -4 4 -21 -9 -17 -8 -24 2 -31 11 -8 10 -9 -3 -4 -11 3 -18 0 -19 -7 0 -7
-4 -3 -9 8 -5 11 -9 15 -9 8 -1 -6 -4 -19 -8 -29 -5 -12 -3 -15 6 -9 10 6 11
2 6 -16 -5 -18 -4 -20 4 -9 7 11 10 6 9 -18 -1 -18 -4 -35 -8 -37 -3 -2 -5
-22 -4 -44 1 -28 -2 -39 -10 -35 -6 3 -2 -2 8 -10 11 -9 15 -16 8 -16 -8 0 -9
-7 -2 -26 13 -33 13 -37 -2 -28 -7 4 -8 3 -4 -5 4 -6 3 -18 -4 -26 -9 -11 -7
-16 10 -25 12 -6 19 -17 17 -25 -4 -9 1 -11 14 -8 13 4 19 0 19 -11 0 -9 -4
-16 -10 -16 -17 0 -11 -25 10 -38 27 -16 25 -31 -2 -26 -17 3 -16 1 5 -7 15
-6 24 -15 21 -21 -4 -6 2 -8 17 -3 20 6 22 5 12 -6 -20 -20 -15 -31 7 -19 16
9 19 8 14 -7 -3 -10 1 -7 9 7 9 14 13 29 10 34 -4 5 -1 6 6 2 7 -5 10 -14 7
-21 -3 -8 5 -16 20 -19 13 -4 24 -11 24 -17 0 -6 5 -7 10 -4 6 3 10 1 10 -5 0
-7 6 -8 18 -2 14 8 65 7 133 -1 8 -1 23 -10 33 -19 18 -19 31 -24 22 -9 -7 10
38 21 52 12 5 -3 11 -15 13 -25 2 -11 11 -22 19 -24 13 -4 13 -3 2 10 -9 11
-10 18 -2 23 5 3 10 1 10 -5 0 -6 8 -10 18 -8 9 2 23 -3 30 -12 11 -13 14 -13
27 4 8 11 15 18 16 15 8 -45 19 -63 26 -43 5 15 53 -6 53 -23 0 -7 7 -10 15
-7 9 4 15 0 15 -10 0 -18 16 -22 22 -5 6 17 36 0 42 -24 5 -22 5 -22 21 -2 9
11 14 14 10 7 -6 -12 16 -42 31 -42 5 0 3 5 -4 12 -19 19 -14 33 6 16 9 -9 28
-19 42 -23 14 -4 27 -11 30 -16 3 -4 17 -10 30 -12 61 -12 130 -56 123 -79 -2
-5 4 -8 13 -8 8 0 12 -4 9 -10 -3 -5 0 -10 8 -10 8 0 22 -12 32 -26 13 -20 19
-23 31 -13 17 14 19 -2 2 -20 -11 -10 -10 -11 3 -6 10 4 20 1 25 -6 4 -7 2
-15 -4 -17 -7 -2 -12 -8 -12 -13 0 -6 5 -7 11 -3 8 4 9 0 4 -15 -4 -12 -2 -21
4 -21 6 0 14 -18 17 -40 4 -22 9 -40 13 -40 3 0 6 -17 7 -38 1 -20 4 -55 8
-77 4 -22 9 -60 11 -85 3 -43 12 -125 19 -180 1 -14 4 -38 5 -55 l3 -30 10 35
c6 20 8 94 5 178 -2 78 -1 142 4 142 4 0 5 10 2 23 -5 22 -7 65 -3 102 3 32
-9 176 -19 214 -5 20 -9 43 -10 51 -3 82 -56 253 -120 395 -11 22 -25 60 -32
84 -7 23 -19 45 -26 48 -7 3 -13 13 -13 22 0 10 -9 27 -20 39 -12 12 -16 22
-11 22 6 0 2 17 -9 38 -38 77 -54 117 -52 130 2 6 1 12 -1 12 -14 0 -437 114
-500 134 -83 28 -285 118 -329 148 -31 21 -38 22 -38 5z m-89 -510 c-10 -9
-11 -8 -5 6 3 10 9 15 12 12 3 -3 0 -11 -7 -18z m84 -217 c3 -5 -1 -10 -9 -10
-9 0 -16 5 -16 10 0 6 4 10 9 10 6 0 13 -4 16 -10z m115 -50 c0 -5 -4 -10 -10
-10 -5 0 -10 5 -10 10 0 6 5 10 10 10 6 0 10 -4 10 -10z m50 -20 c0 -5 -2 -10
-4 -10 -3 0 -8 5 -11 10 -3 6 -1 10 4 10 6 0 11 -4 11 -10z"/>
<path d="M25891 14994 c0 -11 3 -14 6 -6 3 7 2 16 -1 19 -3 4 -6 -2 -5 -13z"/>
<path d="M25935 14770 c3 -5 8 -10 11 -10 2 0 4 5 4 10 0 6 -5 10 -11 10 -5 0
-7 -4 -4 -10z"/>
<path d="M25975 14700 c3 -5 8 -10 11 -10 2 0 4 5 4 10 0 6 -5 10 -11 10 -5 0
-7 -4 -4 -10z"/>
<path d="M25980 14650 c-9 -6 -10 -10 -3 -10 6 0 15 5 18 10 8 12 4 12 -15 0z"/>
<path d="M26070 14086 c0 -2 7 -7 16 -10 8 -3 12 -2 9 4 -6 10 -25 14 -25 6z"/>
<path d="M26070 13842 c0 -4 9 -13 20 -20 11 -7 20 -9 20 -4 0 4 -9 13 -20 20
-11 7 -20 9 -20 4z"/>
<path d="M26510 11361 c0 -6 4 -12 8 -15 5 -3 9 1 9 9 0 8 -4 15 -9 15 -4 0
-8 -4 -8 -9z"/>
<path d="M26518 11103 c7 -3 16 -2 19 1 4 3 -2 6 -13 5 -11 0 -14 -3 -6 -6z"/>
<path d="M26610 7692 c-14 -5 -30 -21 -30 -32 0 -3 9 -6 19 -6 11 0 18 3 15 7
-2 4 1 9 7 11 7 2 10 9 8 15 -2 5 -11 8 -19 5z"/>
<path d="M26561 7674 c0 -11 3 -14 6 -6 3 7 2 16 -1 19 -3 4 -6 -2 -5 -13z"/>
<path d="M26582 7606 c1 -14 5 -23 9 -20 7 4 0 44 -7 44 -2 0 -3 -11 -2 -24z"/>
<path d="M26605 7570 c-3 -5 1 -10 9 -10 9 0 16 -5 16 -11 0 -5 5 -7 10 -4 6
4 5 12 -4 21 -17 17 -23 17 -31 4z"/>
</g>
</svg>
